<svg width="21" height="21" viewBox="0 0 21 21" fill="none" xmlns="http://www.w3.org/2000/svg">
<g clip-path="url(#clip0_41_292)">
<path d="M10.9619 0.744995C5.44769 0.744995 0.961914 5.23077 0.961914 10.745C0.961914 16.2592 5.44769 20.745 10.9619 20.745C16.4761 20.745 20.9619 16.2592 20.9619 10.745C20.9619 5.23077 16.4761 0.744995 10.9619 0.744995Z" fill="#2196F3"/>
<path d="M16.0302 8.62585L10.6134 14.0424C10.4509 14.2049 10.2376 14.2867 10.0243 14.2867C9.81097 14.2867 9.59766 14.2049 9.43515 14.0424L6.72687 11.3341C6.40094 11.0084 6.40094 10.4816 6.72687 10.1559C7.05264 9.82993 7.57922 9.82993 7.90515 10.1559L10.0243 12.275L14.8519 7.44757C15.1776 7.12164 15.7042 7.12164 16.0302 7.44757C16.3559 7.77335 16.3559 8.29993 16.0302 8.62585Z" fill="#FAFAFA"/>
</g>
<defs>
<clipPath id="clip0_41_292">
<rect width="20" height="20" fill="white" transform="translate(0.961914 0.744995)"/>
</clipPath>
</defs>
</svg>
