<svg width="126" height="125" viewBox="0 0 126 125" fill="none" xmlns="http://www.w3.org/2000/svg">
<g clip-path="url(#clip0_208_250)">
<path d="M63 125C97.5178 125 125.5 97.0178 125.5 62.5C125.5 27.9822 97.5178 0 63 0C28.4822 0 0.5 27.9822 0.5 62.5C0.5 97.0178 28.4822 125 63 125Z" fill="#32BA7C"/>
<path d="M47.0293 90.694L79.1665 122.831C105.783 115.733 125.499 91.4826 125.499 62.5C125.499 61.9085 125.499 61.317 125.499 60.7255L100.263 37.4606L47.0293 90.694Z" fill="#0AA06E"/>
<path d="M64.5777 76.4984C67.338 79.2587 67.338 83.9905 64.5777 86.7508L58.86 92.4685C56.0998 95.2287 51.3679 95.2287 48.6077 92.4685L23.5682 67.2319C20.808 64.4716 20.808 59.7397 23.5682 56.9795L29.2859 51.2618C32.0462 48.5016 36.778 48.5016 39.5383 51.2618L64.5777 76.4984Z" fill="white"/>
<path d="M86.4632 32.9259C89.2234 30.1656 93.9553 30.1656 96.7155 32.9259L102.433 38.6435C105.193 41.4038 105.193 46.1356 102.433 48.8959L59.0578 92.0741C56.2975 94.8344 51.5657 94.8344 48.8054 92.0741L43.0878 86.3565C40.3275 83.5962 40.3275 78.8643 43.0878 76.1041L86.4632 32.9259Z" fill="white"/>
</g>
<defs>
<clipPath id="clip0_208_250">
<rect width="125" height="125" fill="white" transform="translate(0.5)"/>
</clipPath>
</defs>
</svg>
