<svg width="58" height="59" viewBox="0 0 58 59" fill="none" xmlns="http://www.w3.org/2000/svg">
<g clip-path="url(#clip0_2_803)">
<path d="M23.2297 50.1831C23.9227 50.3262 24.6234 50.0684 25.0584 49.5105L32.6844 39.7285L45.0658 40.4649C45.7722 40.5069 46.4285 40.1511 46.7788 39.5363C47.1291 38.9215 47.1005 38.1754 46.7042 37.5892L39.7576 27.3138L44.2841 15.7658C44.5424 15.107 44.4069 14.3729 43.9303 13.8497C43.4538 13.3264 42.7354 13.1232 42.0554 13.3189L30.1362 16.7503L26.42 13.6973C26.1575 13.4816 25.7698 13.5196 25.5541 13.7821C25.3382 14.045 25.3764 14.4324 25.6389 14.6481L29.605 17.9064C29.7615 18.0349 29.9712 18.0783 30.1658 18.0223L42.396 14.5015C42.6259 14.4352 42.8595 14.5014 43.0207 14.6783C43.1819 14.8553 43.226 15.094 43.1387 15.3169L38.4941 27.1659C38.4201 27.3544 38.4438 27.5672 38.5572 27.735L45.685 38.2785C45.8191 38.4768 45.8284 38.7193 45.7099 38.9273C45.5914 39.1353 45.378 39.251 45.1391 39.2367L32.4347 38.481C32.2325 38.469 32.0375 38.5572 31.913 38.7169L24.0881 48.754C23.9409 48.9428 23.7131 49.0266 23.4787 48.9781C23.2443 48.9297 23.0683 48.7625 23.008 48.5309L19.8009 36.2147C19.7498 36.0187 19.6057 35.8604 19.4153 35.7914L7.45145 31.4512C7.2264 31.3696 7.07632 31.1788 7.04996 30.9409C7.02367 30.703 7.12818 30.484 7.32993 30.355L18.0521 23.499C18.2227 23.3898 18.3287 23.2038 18.3356 23.0015L18.7664 10.282C18.7745 10.0427 18.9096 9.84101 19.1276 9.74247C19.3457 9.64384 19.5864 9.67567 19.7713 9.82767L23.7375 13.086C24 13.3017 24.3876 13.2637 24.6034 13.0012C24.819 12.7383 24.781 12.3509 24.5185 12.1353L20.5523 8.87689C20.0055 8.42772 19.2654 8.32975 18.6206 8.6213C18.2563 8.78599 17.9652 9.05576 17.7766 9.38676C17.6315 9.64157 17.547 9.93274 17.5365 10.2403L17.1167 22.6365L6.66703 29.3183C6.07089 29.6995 5.74908 30.3732 5.82697 31.0764C5.90493 31.7797 6.36667 32.3666 7.03182 32.6078L18.6916 36.8377L21.8172 48.8408C21.9955 49.5256 22.5368 50.04 23.2297 50.1831Z" fill="#1E1E1E"/>
</g>
<defs>
<clipPath id="clip0_2_803">
<rect width="42" height="42" fill="white" transform="translate(57.9895 21.7543) rotate(119.672)"/>
</clipPath>
</defs>
</svg>
